<?xml version="1.0" encoding="UTF-8" standalone="no"?>
<svg
   width="22"
   height="22"
   version="1.1"
   id="svg2"
   sodipodi:docname="klipper.svg"
   inkscape:version="1.3.2 (091e20ef0f, 2023-11-25, custom)"
   xmlns:inkscape="http://www.inkscape.org/namespaces/inkscape"
   xmlns:sodipodi="http://sodipodi.sourceforge.net/DTD/sodipodi-0.dtd"
   xmlns="http://www.w3.org/2000/svg"
   xmlns:svg="http://www.w3.org/2000/svg">
  <sodipodi:namedview
     id="namedview2"
     pagecolor="#c8c8c8"
     bordercolor="#000000"
     borderopacity="0.25"
     inkscape:showpageshadow="2"
     inkscape:pageopacity="0.0"
     inkscape:pagecheckerboard="0"
     inkscape:deskcolor="#d1d1d1"
     inkscape:zoom="12.020815"
     inkscape:cx="2.7868326"
     inkscape:cy="12.478355"
     inkscape:window-width="1920"
     inkscape:window-height="955"
     inkscape:window-x="0"
     inkscape:window-y="34"
     inkscape:window-maximized="1"
     inkscape:current-layer="svg2" />
  <defs
     id="defs1">
    <style
       id="current-color-scheme"
       type="text/css">.ColorScheme-Text { color:#ffffff; } .ColorScheme-Highlight { color:#4285f4; }</style>
  </defs>
  <g
     id="22-22-klipper"
     transform="translate(-49,-4.999999)">
    <rect
       style="fill:none;fill-opacity:1;stroke:none;stroke-width:0.1;stroke-linecap:square;stroke-linejoin:miter;stroke-miterlimit:4;stroke-dasharray:none;stroke-dashoffset:0;stroke-opacity:1"
       id="rect4148"
       width="22"
       height="22"
       x="49"
       y="4.999999" />
    <g
       id="g5549"
       transform="translate(-21)">
      <g
         id="g5234"
         transform="translate(21)">
        <path
           id="rect4167"
           style="fill:#fbfbfb;fill-opacity:1;fill-rule:evenodd;stroke-width:2.124;stroke-linecap:round;stroke-linejoin:round;paint-order:stroke fill markers"
           d="m 54,9 c -1.108,0 -2,0.892 -2,2 v 11 c 0,1.108 0.892,2 2,2 h 5 v -1 h -5 c -0.554,0 -1,-0.446 -1,-1 V 11 c 0,-0.554 0.446,-1 1,-1 h 10 c 0.554,0 1,0.446 1,1 v 2 h 1 V 11 C 66,9.892 65.108,9 64,9 Z"
           sodipodi:nodetypes="ssssccssssssccsss" />
        <path
           id="rect4392"
           style="fill:#fbfbfb;fill-opacity:1;fill-rule:evenodd;stroke-width:3.00379;stroke-linecap:round;stroke-linejoin:round;paint-order:stroke fill markers"
           d="m 55,9 v 1 c 0,1.108 0.892,2 2,2 h 4 c 1.108,0 2,-0.892 2,-2 V 9 h -1 v 1 c 0,0.554 -0.446,1 -1,1 h -4 c -0.554,0 -1,-0.446 -1,-1 V 9 Z" />
        <path
           id="rect4923"
           style="fill:#fbfbfb;fill-opacity:1;fill-rule:evenodd;stroke-width:2.124;stroke-linecap:round;stroke-linejoin:round;paint-order:stroke fill markers"
           d="m 58,7 c -1.108,0 -2,0.892 -2,2 h 1 c 0,-0.554 0.446,-1 1,-1 h 2 c 0.554,0 1,0.446 1,1 h 1 C 62,7.892 61.108,7 60,7 Z" />
      </g>
      <path
         id="rect5258"
         style="fill:#fbfbfb;fill-opacity:1;fill-rule:evenodd;stroke-width:2.124;stroke-linecap:round;stroke-linejoin:round;paint-order:stroke fill markers"
         d="m 81,13 c -1.108,0 -2,0.892 -2,2 v 8 c 0,1.108 0.892,2 2,2 h 6 c 1.108,0 2,-0.892 2,-2 v -8 c 0,-1.108 -0.892,-2 -2,-2 z m 0,1 h 6 c 0.554,0 1,0.446 1,1 v 8 c 0,0.554 -0.446,1 -1,1 h -6 c -0.554,0 -1,-0.446 -1,-1 v -8 c 0,-0.554 0.446,-1 1,-1 z" />
    </g>
  </g>
</svg>
