<?xml version="1.0" encoding="UTF-8" standalone="no"?>
<svg
   width="16"
   height="16"
   version="1.1"
   id="svg1"
   sodipodi:docname="account-logged-in.svg"
   inkscape:version="1.3.2 (091e20ef0f, 2023-11-25, custom)"
   xmlns:inkscape="http://www.inkscape.org/namespaces/inkscape"
   xmlns:sodipodi="http://sodipodi.sourceforge.net/DTD/sodipodi-0.dtd"
   xmlns="http://www.w3.org/2000/svg"
   xmlns:svg="http://www.w3.org/2000/svg">
  <defs
     id="defs1" />
  <sodipodi:namedview
     id="namedview1"
     pagecolor="#c8c8c8"
     bordercolor="#000000"
     borderopacity="0.25"
     inkscape:showpageshadow="2"
     inkscape:pageopacity="0.0"
     inkscape:pagecheckerboard="0"
     inkscape:deskcolor="#d1d1d1"
     showgrid="true"
     inkscape:zoom="16"
     inkscape:cx="8.3125"
     inkscape:cy="8.25"
     inkscape:window-width="1920"
     inkscape:window-height="1003"
     inkscape:window-x="0"
     inkscape:window-y="0"
     inkscape:window-maximized="1"
     inkscape:current-layer="svg1">
    <inkscape:grid
       id="grid1"
       units="px"
       originx="0"
       originy="0"
       spacingx="1"
       spacingy="1"
       empcolor="#0099e5"
       empopacity="0.30196078"
       color="#0099e5"
       opacity="0.14901961"
       empspacing="5"
       dotted="false"
       gridanglex="30"
       gridanglez="30"
       visible="true" />
  </sodipodi:namedview>
  <g
     transform="translate(-22.836,-1042.4)"
     id="g1" />
  <g
     id="g4">
    <g
       id="g6">
      <path
         id="path4"
         style="fill:#ffffff;fill-opacity:1;stroke:none;stroke-width:2.744;stroke-linecap:round;stroke-linejoin:round;stroke-opacity:0.999975"
         d="M 8,1 A 7,7 0 0 0 1,8 7,7 0 0 0 8,15 7,7 0 0 0 15,8 7,7 0 0 0 8,1 Z M 8,2.023438 A 5.9772258,5.9772258 0 0 1 13.976562,8 5.9772258,5.9772258 0 0 1 8,13.976562 5.9772258,5.9772258 0 0 1 2.023438,8 5.9772258,5.9772258 0 0 1 8,2.023438 Z" />
      <g
         id="g5"
         transform="translate(-7.5857872,-16.87868)">
        <rect
           style="fill:#ffffff;fill-opacity:1;stroke:none;stroke-width:2.24047;stroke-linecap:round;stroke-linejoin:round;stroke-opacity:0.999975"
           id="rect2"
           width="4"
           height="1"
           x="25.8627"
           y="8.3210678"
           ry="0.5"
           transform="rotate(45)" />
        <rect
           style="fill:#ffffff;fill-opacity:1;stroke:none;stroke-width:2.96386;stroke-linecap:round;stroke-linejoin:round;stroke-opacity:0.999975"
           id="rect4"
           width="7"
           height="1"
           x="-9.3210678"
           y="28.8627"
           ry="0.5"
           transform="rotate(-45)" />
      </g>
    </g>
  </g>
</svg>
